<svg xmlns="http://www.w3.org/2000/svg" width="800" height="400" viewBox="0 0 211.667 105.833"><path fill="#ff9292" stroke="#000" stroke-width=".455" d="M1.662 1.774h35.776v48.852H1.662z"/><path fill="#999" stroke="#000" stroke-width=".265" d="M1.566 67.27h35.969V83.7H1.566z"/><path fill="#ffb762" stroke="#000" stroke-width=".265" d="M1.566 50.871h35.969v16.43H1.566z"/><path fill="#e6ff8f" stroke="#000" stroke-width=".401" d="M4.462 3.001h30.427v5.292H4.462zM4.462 9.615h30.427v5.292H4.462zM4.462 43.864h30.427v5.292H4.462zM4.465 37.17h30.427v5.292H4.465z"/><path d="M17.736 36.074v-2.646H15.09l3.968-2.646 3.97 2.646H20.38v2.646zM17.69 16.23v2.646h-2.645l3.969 2.646 3.969-2.646h-2.646V16.23z" fill="#e6ff8f" stroke="#000" stroke-width=".265"/><text style="line-height:1.25" x="13.502" y="198.133" font-weight="400" font-size="10.583" font-family="sans-serif" letter-spacing="0" word-spacing="0" stroke-width=".265" transform="translate(0 -191.167)"><tspan x="13.502" y="198.133" style="-inkscape-font-specification:'sans-serif, Normal';font-variant-ligatures:normal;font-variant-caps:normal;font-variant-numeric:normal;font-feature-settings:normal;text-align:start" font-size="4.233">stack</tspan></text><text style="line-height:1.25" x="13.457" y="204.719" font-weight="400" font-size="10.583" font-family="sans-serif" letter-spacing="0" word-spacing="0" stroke-width=".265" transform="translate(0 -191.167)"><tspan x="13.457" y="204.719" style="-inkscape-font-specification:'sans-serif, Normal';font-variant-ligatures:normal;font-variant-caps:normal;font-variant-numeric:normal;font-feature-settings:normal;text-align:start" font-size="4.233">stack</tspan></text><text style="line-height:1.25" x="13.942" y="232.003" font-weight="400" font-size="10.583" font-family="sans-serif" letter-spacing="0" word-spacing="0" stroke-width=".265" transform="translate(0 -191.167)"><tspan x="13.942" y="232.003" style="-inkscape-font-specification:'sans-serif, Normal';font-variant-ligatures:normal;font-variant-caps:normal;font-variant-numeric:normal;font-feature-settings:normal;text-align:start" font-size="4.233">heap</tspan></text><text style="line-height:1.25" x="13.942" y="238.627" font-weight="400" font-size="10.583" font-family="sans-serif" letter-spacing="0" word-spacing="0" stroke-width=".265" transform="translate(0 -191.167)"><tspan x="13.942" y="238.627" style="-inkscape-font-specification:'sans-serif, Normal';font-variant-ligatures:normal;font-variant-caps:normal;font-variant-numeric:normal;font-feature-settings:normal;text-align:start" font-size="4.233">heap</tspan></text><text style="line-height:1.25;-inkscape-font-specification:'sans-serif, Normal';font-variant-ligatures:normal;font-variant-caps:normal;font-variant-numeric:normal;font-feature-settings:normal;text-align:start" x="13.352" y="251.965" font-weight="400" font-size="4.233" font-family="sans-serif" letter-spacing="0" word-spacing="0" stroke-width=".265" transform="translate(0 -191.167)"><tspan x="13.352" y="251.965">.data</tspan></text><text style="line-height:1.25;-inkscape-font-specification:'sans-serif, Normal';font-variant-ligatures:normal;font-variant-caps:normal;font-variant-numeric:normal;font-feature-settings:normal;text-align:start" x="14.06" y="267.942" font-weight="400" font-size="4.233" font-family="sans-serif" letter-spacing="0" word-spacing="0" stroke-width=".265" transform="translate(0 -191.167)"><tspan x="14.06" y="267.942">.text</tspan></text></svg>