<svg xmlns="http://www.w3.org/2000/svg" width="568" height="374"><defs><marker orient="auto" refY="0" refX="0" id="e" overflow="visible"><path d="M-10 0l-4 4L0 0l-14-4 4 4z" fill-rule="evenodd" stroke="#000" stroke-width=".8pt"/></marker><marker id="c" refX="0" refY="0" orient="auto" overflow="visible"><path d="M-10 0l-4 4L0 0l-14-4 4 4z" fill-rule="evenodd" stroke="#000" stroke-width=".8pt"/></marker><marker orient="auto" refY="0" refX="0" id="b" overflow="visible"><path d="M-10 0l-4 4L0 0l-14-4 4 4z" fill-rule="evenodd" stroke="#000" stroke-width=".8pt"/></marker><marker id="d" refX="0" refY="0" orient="auto" overflow="visible"><path d="M-10 0l-4 4L0 0l-14-4 4 4z" fill-rule="evenodd" stroke="#000" stroke-width=".8pt"/></marker><marker orient="auto" refY="0" refX="0" id="a" overflow="visible"><path d="M-10 0l-4 4L0 0l-14-4 4 4z" fill-rule="evenodd" stroke="#000" stroke-width=".8pt"/></marker></defs><path pointer-events="none" fill="#fff" stroke="#000" d="M87.5 243.5h80v40h-80zM167.5 243.5h80v40h-80zM247.5 243.5h80v40h-80zM327.5 243.5h80v40h-80zM407.5 243.5h80v40h-80zM487.5 243.5h80v40h-80z"/><path pointer-events="none" stroke-miterlimit="10" d="M310.813 15.5H367.5v221.63" fill="none" stroke="#000" marker-end="url(#a)"/><path pointer-events="none" stroke-miterlimit="10" d="M127.5 48.5H7.5v215h73.63" fill="none" stroke="#000" marker-end="url(#b)"/><path pointer-events="none" stroke-miterlimit="10" d="M129.5 284.5q130 110 235.5 4.5" fill="none" stroke="#000" marker-end="url(#c)"/><text style="line-height:1.25;-inkscape-font-specification:'monospace, Normal';font-variant-ligatures:normal;font-variant-caps:normal;font-variant-numeric:normal;font-feature-settings:normal;text-align:start" x="146.797" y="23.486" font-weight="400" font-size="16" font-family="monospace" letter-spacing="0" word-spacing="0"><tspan x="146.797" y="23.486"><tspan x="146.797" y="23.486">int a = 18;</tspan></tspan><tspan x="146.797" y="43.486"><tspan x="146.797">int *a_ptr = &amp;a;</tspan></tspan><tspan x="146.797" y="63.486">int **a_pp = &amp;a_ptr;</tspan></text><text style="line-height:1.25;-inkscape-font-specification:'monospace, Normal';font-variant-ligatures:normal;font-variant-caps:normal;font-variant-numeric:normal;font-feature-settings:normal;text-align:start" x="185.416" y="312.961" font-weight="400" font-size="16" font-family="monospace" letter-spacing="0" word-spacing="0"><tspan x="185.416" y="312.961"><tspan x="185.416" y="312.961">*a_pp</tspan></tspan></text><text style="line-height:1.25;-inkscape-font-specification:'monospace, Normal';font-variant-ligatures:normal;font-variant-caps:normal;font-variant-numeric:normal;font-feature-settings:normal;text-align:start" x="237.315" y="358.126" font-weight="400" font-size="16" font-family="monospace" letter-spacing="0" word-spacing="0"><tspan x="237.315" y="358.126"><tspan x="237.315" y="358.126">*a_ptr</tspan></tspan></text><text style="line-height:1.25;-inkscape-font-specification:'sans-serif, Normal';font-variant-ligatures:normal;font-variant-caps:normal;font-variant-numeric:normal;font-feature-settings:normal;text-align:start" x="87.888" y="239.865" font-weight="400" font-size="10.667" font-family="sans-serif" letter-spacing="0" word-spacing="0"><tspan x="87.888" y="239.865"><tspan x="87.888" y="239.865">0x104</tspan></tspan></text><text style="line-height:1.25;-inkscape-font-specification:'sans-serif, Normal';font-variant-ligatures:normal;font-variant-caps:normal;font-variant-numeric:normal;font-feature-settings:normal;text-align:start" x="167.806" y="239.865" font-weight="400" font-size="10.667" font-family="sans-serif" letter-spacing="0" word-spacing="0"><tspan x="167.806" y="239.865"><tspan x="167.806" y="239.865">0x108</tspan></tspan></text><text style="line-height:1.25;-inkscape-font-specification:'sans-serif, Normal';font-variant-ligatures:normal;font-variant-caps:normal;font-variant-numeric:normal;font-feature-settings:normal;text-align:start" x="247.725" y="239.865" font-weight="400" font-size="10.667" font-family="sans-serif" letter-spacing="0" word-spacing="0"><tspan x="247.725" y="239.865"><tspan x="247.725" y="239.865">0x10c</tspan></tspan></text><text style="line-height:1.25;-inkscape-font-specification:'sans-serif, Normal';font-variant-ligatures:normal;font-variant-caps:normal;font-variant-numeric:normal;font-feature-settings:normal;text-align:start" x="327.644" y="239.865" font-weight="400" font-size="10.667" font-family="sans-serif" letter-spacing="0" word-spacing="0"><tspan x="327.644" y="239.865"><tspan x="327.644" y="239.865">0x110</tspan></tspan></text><text style="line-height:1.25;-inkscape-font-specification:'sans-serif, Normal';font-variant-ligatures:normal;font-variant-caps:normal;font-variant-numeric:normal;font-feature-settings:normal;text-align:start" x="407.562" y="239.865" font-weight="400" font-size="10.667" font-family="sans-serif" letter-spacing="0" word-spacing="0"><tspan x="407.562" y="239.865"><tspan x="407.562" y="239.865">0x114</tspan></tspan></text><text style="line-height:1.25;-inkscape-font-specification:'sans-serif, Normal';font-variant-ligatures:normal;font-variant-caps:normal;font-variant-numeric:normal;font-feature-settings:normal;text-align:start" x="487.481" y="239.865" font-weight="400" font-size="10.667" font-family="sans-serif" letter-spacing="0" word-spacing="0"><tspan x="487.481" y="239.865"><tspan x="487.481" y="239.865">0x118</tspan></tspan></text><text style="line-height:1.25;-inkscape-font-specification:'monospace, Normal';font-variant-ligatures:normal;font-variant-caps:normal;font-variant-numeric:normal;font-feature-settings:normal;text-align:start" x="104.358" y="267.84" font-weight="400" font-size="16" font-family="monospace" letter-spacing="0" word-spacing="0"><tspan x="104.358" y="267.84"><tspan x="104.358" y="267.84">0x110</tspan></tspan></text><text style="line-height:1.25;-inkscape-font-specification:'monospace, Normal';font-variant-ligatures:normal;font-variant-caps:normal;font-variant-numeric:normal;font-feature-settings:normal;text-align:start" x="358.093" y="268.165" font-weight="400" font-size="16" font-family="monospace" letter-spacing="0" word-spacing="0"><tspan x="358.093" y="268.165"><tspan x="358.093" y="268.165">18</tspan></tspan></text><text style="line-height:1.25;-inkscape-font-specification:'monospace, Normal';font-variant-ligatures:normal;font-variant-caps:normal;font-variant-numeric:normal;font-feature-settings:normal;text-align:start" x="262.468" y="268.759" font-weight="400" font-size="16" font-family="monospace" letter-spacing="0" word-spacing="0"><tspan x="262.468" y="268.759">0x104</tspan></text><path d="M230 79v85.17h55V229" fill="none" stroke="#000" marker-end="url(#d)"/><path d="M290 289s-10 60-65 60-93.97-60.2-93.97-60.2" fill="none" stroke="#000" marker-end="url(#e)"/></svg>