<svg xmlns="http://www.w3.org/2000/svg" width="568" height="374"><defs><marker orient="auto" refY="0" refX="0" id="c" overflow="visible"><path d="M-10 0l-4 4L0 0l-14-4 4 4z" fill-rule="evenodd" stroke="#000" stroke-width=".8pt"/></marker><marker id="b" refX="0" refY="0" orient="auto" overflow="visible"><path d="M-10 0l-4 4L0 0l-14-4 4 4z" fill-rule="evenodd" stroke="#000" stroke-width=".8pt"/></marker><marker orient="auto" refY="0" refX="0" id="a" overflow="visible"><path d="M-10 0l-4 4L0 0l-14-4 4 4z" fill-rule="evenodd" stroke="#000" stroke-width=".8pt"/></marker></defs><path pointer-events="none" fill="#fff" stroke="#000" d="M87.5 243.5h80v40h-80zM167.5 243.5h80v40h-80zM247.5 243.5h80v40h-80zM327.5 243.5h80v40h-80zM407.5 243.5h80v40h-80zM487.5 243.5h80v40h-80z"/><path pointer-events="none" stroke-miterlimit="10" d="M310.813 15.5H367.5v221.63" fill="none" stroke="#000" marker-end="url(#a)"/><path pointer-events="none" stroke-miterlimit="10" d="M127.5 48.5H7.5v215h73.63" fill="none" stroke="#000"/><path pointer-events="none" stroke-miterlimit="10" d="M86.38 263.5l-7 3.5 1.75-3.5-1.75-3.5z" stroke="#000"/><path pointer-events="none" stroke-miterlimit="10" d="M127.5 283.5c86.667 73.333 247.167 76.833 317.5 6.5" fill="none" stroke="#000" marker-end="url(#b)"/><text style="line-height:1.25;-inkscape-font-specification:'monospace, Normal';font-variant-ligatures:normal;font-variant-caps:normal;font-variant-numeric:normal;font-feature-settings:normal;text-align:start" x="144.024" y="27.844" font-weight="400" font-size="16" font-family="monospace" letter-spacing="0" word-spacing="0"><tspan x="144.024" y="27.844"><tspan x="144.024" y="27.844">int a = 18;</tspan></tspan><tspan x="144.024" y="47.844"><tspan x="144.024">int *a_ptr = &amp;a;</tspan></tspan><tspan x="144.024" y="67.844">a_ptr += 1;</tspan></text><text style="line-height:1.25;-inkscape-font-specification:'monospace, Normal';font-variant-ligatures:normal;font-variant-caps:normal;font-variant-numeric:normal;font-feature-settings:normal;text-align:start" x="292.431" y="358.905" font-weight="400" font-size="16" font-family="monospace" letter-spacing="0" word-spacing="0" writing-mode="lr"><tspan>*a_ptr</tspan></text><text style="line-height:1.25;-inkscape-font-specification:'sans-serif, Normal';font-variant-ligatures:normal;font-variant-caps:normal;font-variant-numeric:normal;font-feature-settings:normal;text-align:start" x="87.888" y="239.865" font-weight="400" font-size="10.667" font-family="sans-serif" letter-spacing="0" word-spacing="0"><tspan x="87.888" y="239.865"><tspan x="87.888" y="239.865">0x104</tspan></tspan></text><text style="line-height:1.25;-inkscape-font-specification:'sans-serif, Normal';font-variant-ligatures:normal;font-variant-caps:normal;font-variant-numeric:normal;font-feature-settings:normal;text-align:start" x="167.806" y="239.865" font-weight="400" font-size="10.667" font-family="sans-serif" letter-spacing="0" word-spacing="0"><tspan x="167.806" y="239.865"><tspan x="167.806" y="239.865">0x108</tspan></tspan></text><text style="line-height:1.25;-inkscape-font-specification:'sans-serif, Normal';font-variant-ligatures:normal;font-variant-caps:normal;font-variant-numeric:normal;font-feature-settings:normal;text-align:start" x="247.725" y="239.865" font-weight="400" font-size="10.667" font-family="sans-serif" letter-spacing="0" word-spacing="0"><tspan x="247.725" y="239.865"><tspan x="247.725" y="239.865">0x10c</tspan></tspan></text><text style="line-height:1.25;-inkscape-font-specification:'sans-serif, Normal';font-variant-ligatures:normal;font-variant-caps:normal;font-variant-numeric:normal;font-feature-settings:normal;text-align:start" x="327.644" y="239.865" font-weight="400" font-size="10.667" font-family="sans-serif" letter-spacing="0" word-spacing="0"><tspan x="327.644" y="239.865"><tspan x="327.644" y="239.865">0x110</tspan></tspan></text><text style="line-height:1.25;-inkscape-font-specification:'sans-serif, Normal';font-variant-ligatures:normal;font-variant-caps:normal;font-variant-numeric:normal;font-feature-settings:normal;text-align:start" x="407.562" y="239.865" font-weight="400" font-size="10.667" font-family="sans-serif" letter-spacing="0" word-spacing="0"><tspan x="407.562" y="239.865"><tspan x="407.562" y="239.865">0x114</tspan></tspan></text><text style="line-height:1.25;-inkscape-font-specification:'sans-serif, Normal';font-variant-ligatures:normal;font-variant-caps:normal;font-variant-numeric:normal;font-feature-settings:normal;text-align:start" x="487.481" y="239.865" font-weight="400" font-size="10.667" font-family="sans-serif" letter-spacing="0" word-spacing="0"><tspan x="487.481" y="239.865"><tspan x="487.481" y="239.865">0x118</tspan></tspan></text><text style="line-height:1.25;-inkscape-font-specification:'monospace, Normal';font-variant-ligatures:normal;font-variant-caps:normal;font-variant-numeric:normal;font-feature-settings:normal;text-align:start" x="104.358" y="267.84" font-weight="400" font-size="16" font-family="monospace" letter-spacing="0" word-spacing="0"><tspan x="104.358" y="267.84"><tspan x="104.358" y="267.84">0x114</tspan></tspan></text><text style="line-height:1.25;-inkscape-font-specification:'monospace, Normal';font-variant-ligatures:normal;font-variant-caps:normal;font-variant-numeric:normal;font-feature-settings:normal;text-align:start" x="358.093" y="268.165" font-weight="400" font-size="16" font-family="monospace" letter-spacing="0" word-spacing="0"><tspan x="358.093" y="268.165"><tspan x="358.093" y="268.165">18</tspan></tspan></text><text style="line-height:1.25;-inkscape-font-specification:'monospace, Normal';font-variant-ligatures:normal;font-variant-caps:normal;font-variant-numeric:normal;text-align:start" x="433" y="269" font-weight="400" font-size="16" font-family="monospace" letter-spacing="0" word-spacing="0"><tspan x="433" y="269">???</tspan></text><path pointer-events="none" stroke-miterlimit="10" d="M129.5 284.5q130 110 235.5 4.5" fill="none" stroke="#000" stroke-dasharray="6,6" marker-end="url(#c)"/></svg>