<?xml version="1.0" encoding="UTF-8" standalone="no"?>
<!DOCTYPE svg PUBLIC "-//W3C//DTD SVG 1.1//EN"
 "http://www.w3.org/Graphics/SVG/1.1/DTD/svg11.dtd">
<!-- Generated by graphviz version 2.40.1 (0)
 -->
<!-- Title: compile Pages: 1 -->
<svg width="301pt" height="770pt"
 viewBox="0.00 0.00 301.29 770.00" xmlns="http://www.w3.org/2000/svg" xmlns:xlink="http://www.w3.org/1999/xlink">
<g id="graph0" class="graph" transform="scale(1 1) rotate(0) translate(4 766)">
<title>compile</title>
<polygon fill="transparent" stroke="transparent" points="-4,4 -4,-766 297.2941,-766 297.2941,4 -4,4"/>
<g id="clust1" class="cluster">
<title>cluster_frontend</title>
<polygon fill="transparent" stroke="#000000" points="8,-499 8,-718 166,-718 166,-499 8,-499"/>
<text text-anchor="middle" x="87" y="-702.8" font-family="Sarasa UI SC" font-size="14.00" fill="#000000">LLVM 前端</text>
</g>
<g id="clust2" class="cluster">
<title>cluster_backend</title>
<polygon fill="transparent" stroke="#000000" points="13,-208 13,-427 161,-427 161,-208 13,-208"/>
<text text-anchor="middle" x="87" y="-411.8" font-family="Sarasa UI SC" font-size="14.00" fill="#000000">LLVM 后端</text>
</g>
<!-- source_code -->
<g id="node1" class="node">
<title>source_code</title>
<ellipse fill="none" stroke="#000000" cx="87" cy="-744" rx="45.4919" ry="18"/>
<text text-anchor="middle" x="87" y="-740.3" font-family="Sarasa UI SC" font-size="14.00" fill="#000000">源代码.c</text>
</g>
<!-- preprocesser -->
<g id="node7" class="node">
<title>preprocesser</title>
<polygon fill="none" stroke="#000000" points="124,-687 50,-687 50,-651 124,-651 124,-687"/>
<text text-anchor="middle" x="87" y="-665.3" font-family="Sarasa UI SC" font-size="14.00" fill="#000000">预处理器</text>
</g>
<!-- source_code&#45;&gt;preprocesser -->
<g id="edge1" class="edge">
<title>source_code&#45;&gt;preprocesser</title>
<path fill="none" stroke="#000000" d="M87,-725.8446C87,-717.3401 87,-707.0076 87,-697.4964"/>
<polygon fill="#000000" stroke="#000000" points="90.5001,-697.2481 87,-687.2482 83.5001,-697.2482 90.5001,-697.2481"/>
</g>
<!-- preprocessed_code -->
<g id="node2" class="node">
<title>preprocessed_code</title>
<ellipse fill="none" stroke="#000000" cx="87" cy="-597" rx="71.4873" ry="18"/>
<text text-anchor="middle" x="87" y="-593.3" font-family="Sarasa UI SC" font-size="14.00" fill="#000000">预处理后代码.i</text>
</g>
<!-- compiler -->
<g id="node8" class="node">
<title>compiler</title>
<polygon fill="none" stroke="#000000" points="152.5,-543 21.5,-543 21.5,-507 152.5,-507 152.5,-543"/>
<text text-anchor="middle" x="87" y="-521.3" font-family="Sarasa UI SC" font-size="14.00" fill="#000000">LLVM IR 码生成器</text>
</g>
<!-- preprocessed_code&#45;&gt;compiler -->
<g id="edge3" class="edge">
<title>preprocessed_code&#45;&gt;compiler</title>
<path fill="none" stroke="#000000" d="M87,-578.8314C87,-571.131 87,-561.9743 87,-553.4166"/>
<polygon fill="#000000" stroke="#000000" points="90.5001,-553.4132 87,-543.4133 83.5001,-553.4133 90.5001,-553.4132"/>
</g>
<!-- ir_code -->
<g id="node3" class="node">
<title>ir_code</title>
<ellipse fill="none" stroke="#000000" cx="87" cy="-453" rx="50.0912" ry="18"/>
<text text-anchor="middle" x="87" y="-449.3" font-family="Sarasa UI SC" font-size="14.00" fill="#000000">IR 中间码</text>
</g>
<!-- ir_parser -->
<g id="node9" class="node">
<title>ir_parser</title>
<polygon fill="none" stroke="#000000" points="152.5,-396 21.5,-396 21.5,-360 152.5,-360 152.5,-396"/>
<text text-anchor="middle" x="87" y="-374.3" font-family="Sarasa UI SC" font-size="14.00" fill="#000000">LLVM IR 码解析器</text>
</g>
<!-- ir_code&#45;&gt;ir_parser -->
<g id="edge5" class="edge">
<title>ir_code&#45;&gt;ir_parser</title>
<path fill="none" stroke="#000000" d="M87,-434.8446C87,-426.3401 87,-416.0076 87,-406.4964"/>
<polygon fill="#000000" stroke="#000000" points="90.5001,-406.2481 87,-396.2482 83.5001,-406.2482 90.5001,-406.2481"/>
</g>
<!-- assembly_code -->
<g id="node4" class="node">
<title>assembly_code</title>
<ellipse fill="none" stroke="#000000" cx="87" cy="-306" rx="54.6905" ry="18"/>
<text text-anchor="middle" x="87" y="-302.3" font-family="Sarasa UI SC" font-size="14.00" fill="#000000">汇编代码.s</text>
</g>
<!-- assembler -->
<g id="node10" class="node">
<title>assembler</title>
<polygon fill="none" stroke="#000000" points="116.5,-252 57.5,-252 57.5,-216 116.5,-216 116.5,-252"/>
<text text-anchor="middle" x="87" y="-230.3" font-family="Sarasa UI SC" font-size="14.00" fill="#000000">汇编器</text>
</g>
<!-- assembly_code&#45;&gt;assembler -->
<g id="edge7" class="edge">
<title>assembly_code&#45;&gt;assembler</title>
<path fill="none" stroke="#000000" d="M87,-287.8314C87,-280.131 87,-270.9743 87,-262.4166"/>
<polygon fill="#000000" stroke="#000000" points="90.5001,-262.4132 87,-252.4133 83.5001,-262.4133 90.5001,-262.4132"/>
</g>
<!-- object_code -->
<g id="node5" class="node">
<title>object_code</title>
<ellipse fill="none" stroke="#000000" cx="87" cy="-162" rx="55.7903" ry="18"/>
<text text-anchor="middle" x="87" y="-158.3" font-family="Sarasa UI SC" font-size="14.00" fill="#000000">目标代码.o</text>
</g>
<!-- linker -->
<g id="node11" class="node">
<title>linker</title>
<polygon fill="none" stroke="#000000" points="186.5,-108 127.5,-108 127.5,-72 186.5,-72 186.5,-108"/>
<text text-anchor="middle" x="157" y="-86.3" font-family="Sarasa UI SC" font-size="14.00" fill="#000000">链接器</text>
</g>
<!-- object_code&#45;&gt;linker -->
<g id="edge9" class="edge">
<title>object_code&#45;&gt;linker</title>
<path fill="none" stroke="#000000" d="M103.945,-144.5708C112.4377,-135.8355 122.8834,-125.0914 132.2536,-115.4534"/>
<polygon fill="#000000" stroke="#000000" points="135.0187,-117.6304 139.48,-108.0206 129.9997,-112.7508 135.0187,-117.6304"/>
</g>
<!-- executable -->
<g id="node6" class="node">
<title>executable</title>
<ellipse fill="none" stroke="#000000" cx="157" cy="-18" rx="74.9875" ry="18"/>
<text text-anchor="middle" x="157" y="-14.3" font-family="Sarasa UI SC" font-size="14.00" fill="#000000">可执行文件.out</text>
</g>
<!-- preprocesser&#45;&gt;preprocessed_code -->
<g id="edge2" class="edge">
<title>preprocesser&#45;&gt;preprocessed_code</title>
<path fill="none" stroke="#000000" d="M87,-650.8314C87,-643.131 87,-633.9743 87,-625.4166"/>
<polygon fill="#000000" stroke="#000000" points="90.5001,-625.4132 87,-615.4133 83.5001,-625.4133 90.5001,-625.4132"/>
</g>
<!-- compiler&#45;&gt;ir_code -->
<g id="edge4" class="edge">
<title>compiler&#45;&gt;ir_code</title>
<path fill="none" stroke="#000000" d="M87,-506.8314C87,-499.131 87,-489.9743 87,-481.4166"/>
<polygon fill="#000000" stroke="#000000" points="90.5001,-481.4132 87,-471.4133 83.5001,-481.4133 90.5001,-481.4132"/>
</g>
<!-- ir_parser&#45;&gt;assembly_code -->
<g id="edge6" class="edge">
<title>ir_parser&#45;&gt;assembly_code</title>
<path fill="none" stroke="#000000" d="M87,-359.8314C87,-352.131 87,-342.9743 87,-334.4166"/>
<polygon fill="#000000" stroke="#000000" points="90.5001,-334.4132 87,-324.4133 83.5001,-334.4133 90.5001,-334.4132"/>
</g>
<!-- assembler&#45;&gt;object_code -->
<g id="edge8" class="edge">
<title>assembler&#45;&gt;object_code</title>
<path fill="none" stroke="#000000" d="M87,-215.8314C87,-208.131 87,-198.9743 87,-190.4166"/>
<polygon fill="#000000" stroke="#000000" points="90.5001,-190.4132 87,-180.4133 83.5001,-190.4133 90.5001,-190.4132"/>
</g>
<!-- linker&#45;&gt;executable -->
<g id="edge10" class="edge">
<title>linker&#45;&gt;executable</title>
<path fill="none" stroke="#000000" d="M157,-71.8314C157,-64.131 157,-54.9743 157,-46.4166"/>
<polygon fill="#000000" stroke="#000000" points="160.5001,-46.4132 157,-36.4133 153.5001,-46.4133 160.5001,-46.4132"/>
</g>
<!-- 其他目标代码 -->
<g id="node12" class="node">
<title>其他目标代码</title>
<ellipse fill="none" stroke="#000000" cx="227" cy="-162" rx="66.0889" ry="18"/>
<text text-anchor="middle" x="227" y="-158.3" font-family="Sarasa UI SC" font-size="14.00" fill="#000000">其他目标代码</text>
</g>
<!-- 其他目标代码&#45;&gt;linker -->
<g id="edge11" class="edge">
<title>其他目标代码&#45;&gt;linker</title>
<path fill="none" stroke="#000000" d="M210.055,-144.5708C201.5623,-135.8355 191.1166,-125.0914 181.7464,-115.4534"/>
<polygon fill="#000000" stroke="#000000" points="184.0003,-112.7508 174.52,-108.0206 178.9813,-117.6304 184.0003,-112.7508"/>
</g>
</g>
</svg>
