<?xml version="1.0" encoding="UTF-8" standalone="no"?>
<!DOCTYPE svg PUBLIC "-//W3C//DTD SVG 1.1//EN"
 "http://www.w3.org/Graphics/SVG/1.1/DTD/svg11.dtd">
<!-- Generated by graphviz version 2.40.1 (0)
 -->
<!-- Title: index Pages: 1 -->
<svg width="500pt" height="646pt"
 viewBox="0.00 0.00 500.00 646.00" xmlns="http://www.w3.org/2000/svg" xmlns:xlink="http://www.w3.org/1999/xlink">
<g id="graph0" class="graph" transform="scale(1 1) rotate(0) translate(4 642)">
<title>index</title>
<polygon fill="transparent" stroke="transparent" points="-4,4 -4,-642 496,-642 496,4 -4,4"/>
<text text-anchor="middle" x="246" y="-7.8" font-family="Sarasa UI SC" font-size="14.00" fill="#000000">书籍大纲</text>
<g id="clust1" class="cluster">
<title>cluster_cpp</title>
<polygon fill="transparent" stroke="#000000" points="8,-159 8,-522 250,-522 250,-159 8,-159"/>
<text text-anchor="middle" x="129" y="-506.8" font-family="Sarasa UI SC" font-size="14.00" fill="#000000">C++ 路线</text>
</g>
<g id="clust2" class="cluster">
<title>cluster_c</title>
<polygon fill="transparent" stroke="#000000" points="258,-303 258,-522 484,-522 484,-303 258,-303"/>
<text text-anchor="middle" x="371" y="-506.8" font-family="Sarasa UI SC" font-size="14.00" fill="#000000">C 路线</text>
</g>
<!-- c_start -->
<g id="node1" class="node">
<title>c_start</title>
<ellipse fill="none" stroke="#000000" cx="264" cy="-620" rx="55.7903" ry="18"/>
<text text-anchor="middle" x="264" y="-616.3" font-family="Sarasa UI SC" font-size="14.00" fill="#000000">C 语言入门</text>
</g>
<!-- c_stdlib -->
<g id="node2" class="node">
<title>c_stdlib</title>
<ellipse fill="none" stroke="#000000" cx="264" cy="-548" rx="65.7887" ry="18"/>
<text text-anchor="middle" x="264" y="-544.3" font-family="Sarasa UI SC" font-size="14.00" fill="#000000">C 语言标准库</text>
</g>
<!-- c_start&#45;&gt;c_stdlib -->
<g id="edge1" class="edge">
<title>c_start&#45;&gt;c_stdlib</title>
<path fill="none" stroke="#000000" d="M264,-601.8314C264,-594.131 264,-584.9743 264,-576.4166"/>
<polygon fill="#000000" stroke="#000000" points="267.5001,-576.4132 264,-566.4133 260.5001,-576.4133 267.5001,-576.4132"/>
</g>
<!-- c_to_cpp -->
<g id="node3" class="node">
<title>c_to_cpp</title>
<ellipse fill="none" stroke="#000000" cx="156" cy="-473" rx="77.1866" ry="18"/>
<text text-anchor="middle" x="156" y="-469.3" font-family="Sarasa UI SC" font-size="14.00" fill="#000000">从 C 扩展到 C++</text>
</g>
<!-- c_stdlib&#45;&gt;c_to_cpp -->
<g id="edge2" class="edge">
<title>c_stdlib&#45;&gt;c_to_cpp</title>
<path fill="none" stroke="#000000" d="M239.7627,-531.1685C224.828,-520.7972 205.4763,-507.3586 189.1364,-496.0114"/>
<polygon fill="#000000" stroke="#000000" points="191.1157,-493.1247 180.9056,-490.2955 187.1229,-498.8743 191.1157,-493.1247"/>
</g>
<!-- c_programing_mode -->
<g id="node8" class="node">
<title>c_programing_mode</title>
<ellipse fill="none" stroke="#000000" cx="346" cy="-473" rx="55.7903" ry="18"/>
<text text-anchor="middle" x="346" y="-469.3" font-family="Sarasa UI SC" font-size="14.00" fill="#000000">C 编程模式</text>
</g>
<!-- c_stdlib&#45;&gt;c_programing_mode -->
<g id="edge3" class="edge">
<title>c_stdlib&#45;&gt;c_programing_mode</title>
<path fill="none" stroke="#000000" d="M283.0186,-530.605C293.9631,-520.5947 307.8746,-507.8708 319.8378,-496.9288"/>
<polygon fill="#000000" stroke="#000000" points="322.3505,-499.3739 327.3673,-490.0421 317.6261,-494.2086 322.3505,-499.3739"/>
</g>
<!-- cpp_remove_c -->
<g id="node4" class="node">
<title>cpp_remove_c</title>
<ellipse fill="none" stroke="#000000" cx="147" cy="-401" rx="77.1866" ry="18"/>
<text text-anchor="middle" x="147" y="-397.3" font-family="Sarasa UI SC" font-size="14.00" fill="#000000">在 C++ 中摆脱 C</text>
</g>
<!-- c_to_cpp&#45;&gt;cpp_remove_c -->
<g id="edge4" class="edge">
<title>c_to_cpp&#45;&gt;cpp_remove_c</title>
<path fill="none" stroke="#000000" d="M153.7289,-454.8314C152.7664,-447.131 151.6218,-437.9743 150.5521,-429.4166"/>
<polygon fill="#000000" stroke="#000000" points="154.0151,-428.9019 149.3017,-419.4133 147.0691,-429.7702 154.0151,-428.9019"/>
</g>
<!-- cpp_stl -->
<g id="node5" class="node">
<title>cpp_stl</title>
<ellipse fill="none" stroke="#000000" cx="129" cy="-329" rx="113.18" ry="18"/>
<text text-anchor="middle" x="129" y="-325.3" font-family="Sarasa UI SC" font-size="14.00" fill="#000000">C++ 标准库与标准模板库</text>
</g>
<!-- cpp_remove_c&#45;&gt;cpp_stl -->
<g id="edge5" class="edge">
<title>cpp_remove_c&#45;&gt;cpp_stl</title>
<path fill="none" stroke="#000000" d="M142.4578,-382.8314C140.5116,-375.0463 138.1932,-365.7729 136.0337,-357.1347"/>
<polygon fill="#000000" stroke="#000000" points="139.4242,-356.2658 133.6033,-347.4133 132.6332,-357.9636 139.4242,-356.2658"/>
</g>
<!-- cpp_feature -->
<g id="node6" class="node">
<title>cpp_feature</title>
<ellipse fill="none" stroke="#000000" cx="141" cy="-257" rx="57.6901" ry="18"/>
<text text-anchor="middle" x="141" y="-253.3" font-family="Sarasa UI SC" font-size="14.00" fill="#000000">C++ 新特性</text>
</g>
<!-- cpp_stl&#45;&gt;cpp_feature -->
<g id="edge6" class="edge">
<title>cpp_stl&#45;&gt;cpp_feature</title>
<path fill="none" stroke="#000000" d="M132.0281,-310.8314C133.3115,-303.131 134.8376,-293.9743 136.2639,-285.4166"/>
<polygon fill="#000000" stroke="#000000" points="139.7394,-285.8526 137.9311,-275.4133 132.8347,-284.7018 139.7394,-285.8526"/>
</g>
<!-- cpp_programing_mode -->
<g id="node7" class="node">
<title>cpp_programing_mode</title>
<ellipse fill="none" stroke="#000000" cx="163" cy="-185" rx="66.8882" ry="18"/>
<text text-anchor="middle" x="163" y="-181.3" font-family="Sarasa UI SC" font-size="14.00" fill="#000000">C++ 编程模式</text>
</g>
<!-- cpp_feature&#45;&gt;cpp_programing_mode -->
<g id="edge7" class="edge">
<title>cpp_feature&#45;&gt;cpp_programing_mode</title>
<path fill="none" stroke="#000000" d="M146.5515,-238.8314C148.9303,-231.0463 151.7638,-221.7729 154.4033,-213.1347"/>
<polygon fill="#000000" stroke="#000000" points="157.7987,-213.9996 157.3737,-203.4133 151.1042,-211.954 157.7987,-213.9996"/>
</g>
<!-- assembly -->
<g id="node11" class="node">
<title>assembly</title>
<ellipse fill="none" stroke="#000000" cx="242" cy="-113" rx="76.0865" ry="18"/>
<text text-anchor="middle" x="242" y="-109.3" font-family="Sarasa UI SC" font-size="14.00" fill="#000000">C/C++ 内联汇编</text>
</g>
<!-- cpp_programing_mode&#45;&gt;assembly -->
<g id="edge10" class="edge">
<title>cpp_programing_mode&#45;&gt;assembly</title>
<path fill="none" stroke="#000000" d="M182.1237,-167.5708C192.045,-158.5286 204.3281,-147.3338 215.1821,-137.4417"/>
<polygon fill="#000000" stroke="#000000" points="217.7453,-139.8411 222.7786,-130.5182 213.03,-134.6675 217.7453,-139.8411"/>
</g>
<!-- c_learn_computer -->
<g id="node9" class="node">
<title>c_learn_computer</title>
<ellipse fill="none" stroke="#000000" cx="371" cy="-401" rx="104.7816" ry="18"/>
<text text-anchor="middle" x="371" y="-397.3" font-family="Sarasa UI SC" font-size="14.00" fill="#000000">通过 C 语言认识计算机</text>
</g>
<!-- c_programing_mode&#45;&gt;c_learn_computer -->
<g id="edge8" class="edge">
<title>c_programing_mode&#45;&gt;c_learn_computer</title>
<path fill="none" stroke="#000000" d="M352.3086,-454.8314C355.0117,-447.0463 358.2316,-437.7729 361.231,-429.1347"/>
<polygon fill="#000000" stroke="#000000" points="364.6327,-430.0081 364.6065,-419.4133 358.02,-427.7119 364.6327,-430.0081"/>
</g>
<!-- c_ds_algo -->
<g id="node10" class="node">
<title>c_ds_algo</title>
<ellipse fill="none" stroke="#000000" cx="360" cy="-329" rx="83.6854" ry="18"/>
<text text-anchor="middle" x="360" y="-325.3" font-family="Sarasa UI SC" font-size="14.00" fill="#000000">C 数据结构与算法</text>
</g>
<!-- c_learn_computer&#45;&gt;c_ds_algo -->
<g id="edge9" class="edge">
<title>c_learn_computer&#45;&gt;c_ds_algo</title>
<path fill="none" stroke="#000000" d="M368.2242,-382.8314C367.0478,-375.131 365.6489,-365.9743 364.3414,-357.4166"/>
<polygon fill="#000000" stroke="#000000" points="367.7833,-356.7699 362.8131,-347.4133 360.8636,-357.8272 367.7833,-356.7699"/>
</g>
<!-- c_ds_algo&#45;&gt;assembly -->
<g id="edge11" class="edge">
<title>c_ds_algo&#45;&gt;assembly</title>
<path fill="none" stroke="#000000" d="M350.1423,-310.9555C329.4056,-272.9967 281.1764,-184.7127 256.7461,-139.9928"/>
<polygon fill="#000000" stroke="#000000" points="259.7784,-138.2429 251.9126,-131.1451 253.6353,-141.5989 259.7784,-138.2429"/>
</g>
<!-- web -->
<g id="node12" class="node">
<title>web</title>
<ellipse fill="none" stroke="#000000" cx="242" cy="-41" rx="76.0865" ry="18"/>
<text text-anchor="middle" x="242" y="-37.3" font-family="Sarasa UI SC" font-size="14.00" fill="#000000">C/C++ 网络编程</text>
</g>
<!-- assembly&#45;&gt;web -->
<g id="edge12" class="edge">
<title>assembly&#45;&gt;web</title>
<path fill="none" stroke="#000000" d="M242,-94.8314C242,-87.131 242,-77.9743 242,-69.4166"/>
<polygon fill="#000000" stroke="#000000" points="245.5001,-69.4132 242,-59.4133 238.5001,-69.4133 245.5001,-69.4132"/>
</g>
</g>
</svg>
