<?xml version="1.0" encoding="UTF-8" standalone="no"?>
<!DOCTYPE svg PUBLIC "-//W3C//DTD SVG 1.1//EN"
 "http://www.w3.org/Graphics/SVG/1.1/DTD/svg11.dtd">
<!-- Generated by graphviz version 2.40.1 (0)
 -->
<!-- Title: compile Pages: 1 -->
<svg width="286pt" height="620pt"
 viewBox="0.00 0.00 285.79 620.00" xmlns="http://www.w3.org/2000/svg" xmlns:xlink="http://www.w3.org/1999/xlink">
<g id="graph0" class="graph" transform="scale(1 1) rotate(0) translate(4 616)">
<title>compile</title>
<polygon fill="transparent" stroke="transparent" points="-4,4 -4,-616 281.7878,-616 281.7878,4 -4,4"/>
<!-- source_code -->
<g id="node1" class="node">
<title>source_code</title>
<ellipse fill="none" stroke="#000000" cx="71.4937" cy="-594" rx="45.4919" ry="18"/>
<text text-anchor="middle" x="71.4937" y="-590.3" font-family="Sarasa UI SC" font-size="14.00" fill="#000000">源代码.c</text>
</g>
<!-- preprocesser -->
<g id="node6" class="node">
<title>preprocesser</title>
<polygon fill="none" stroke="#000000" points="108.4937,-540 34.4937,-540 34.4937,-504 108.4937,-504 108.4937,-540"/>
<text text-anchor="middle" x="71.4937" y="-518.3" font-family="Sarasa UI SC" font-size="14.00" fill="#000000">预处理器</text>
</g>
<!-- source_code&#45;&gt;preprocesser -->
<g id="edge1" class="edge">
<title>source_code&#45;&gt;preprocesser</title>
<path fill="none" stroke="#000000" d="M71.4937,-575.8314C71.4937,-568.131 71.4937,-558.9743 71.4937,-550.4166"/>
<polygon fill="#000000" stroke="#000000" points="74.9938,-550.4132 71.4937,-540.4133 67.9938,-550.4133 74.9938,-550.4132"/>
</g>
<!-- preprocessed_code -->
<g id="node2" class="node">
<title>preprocessed_code</title>
<ellipse fill="none" stroke="#000000" cx="71.4937" cy="-450" rx="71.4873" ry="18"/>
<text text-anchor="middle" x="71.4937" y="-446.3" font-family="Sarasa UI SC" font-size="14.00" fill="#000000">预处理后代码.i</text>
</g>
<!-- compiler -->
<g id="node7" class="node">
<title>compiler</title>
<polygon fill="none" stroke="#000000" points="100.9937,-396 41.9937,-396 41.9937,-360 100.9937,-360 100.9937,-396"/>
<text text-anchor="middle" x="71.4937" y="-374.3" font-family="Sarasa UI SC" font-size="14.00" fill="#000000">编译器</text>
</g>
<!-- preprocessed_code&#45;&gt;compiler -->
<g id="edge3" class="edge">
<title>preprocessed_code&#45;&gt;compiler</title>
<path fill="none" stroke="#000000" d="M71.4937,-431.8314C71.4937,-424.131 71.4937,-414.9743 71.4937,-406.4166"/>
<polygon fill="#000000" stroke="#000000" points="74.9938,-406.4132 71.4937,-396.4133 67.9938,-406.4133 74.9938,-406.4132"/>
</g>
<!-- assembly_code -->
<g id="node3" class="node">
<title>assembly_code</title>
<ellipse fill="none" stroke="#000000" cx="71.4937" cy="-306" rx="54.6905" ry="18"/>
<text text-anchor="middle" x="71.4937" y="-302.3" font-family="Sarasa UI SC" font-size="14.00" fill="#000000">汇编代码.s</text>
</g>
<!-- assembler -->
<g id="node8" class="node">
<title>assembler</title>
<polygon fill="none" stroke="#000000" points="100.9937,-252 41.9937,-252 41.9937,-216 100.9937,-216 100.9937,-252"/>
<text text-anchor="middle" x="71.4937" y="-230.3" font-family="Sarasa UI SC" font-size="14.00" fill="#000000">汇编器</text>
</g>
<!-- assembly_code&#45;&gt;assembler -->
<g id="edge5" class="edge">
<title>assembly_code&#45;&gt;assembler</title>
<path fill="none" stroke="#000000" d="M71.4937,-287.8314C71.4937,-280.131 71.4937,-270.9743 71.4937,-262.4166"/>
<polygon fill="#000000" stroke="#000000" points="74.9938,-262.4132 71.4937,-252.4133 67.9938,-262.4133 74.9938,-262.4132"/>
</g>
<!-- object_code -->
<g id="node4" class="node">
<title>object_code</title>
<ellipse fill="none" stroke="#000000" cx="71.4937" cy="-162" rx="55.7903" ry="18"/>
<text text-anchor="middle" x="71.4937" y="-158.3" font-family="Sarasa UI SC" font-size="14.00" fill="#000000">目标代码.o</text>
</g>
<!-- linker -->
<g id="node9" class="node">
<title>linker</title>
<polygon fill="none" stroke="#000000" points="170.9937,-108 111.9937,-108 111.9937,-72 170.9937,-72 170.9937,-108"/>
<text text-anchor="middle" x="141.4937" y="-86.3" font-family="Sarasa UI SC" font-size="14.00" fill="#000000">链接器</text>
</g>
<!-- object_code&#45;&gt;linker -->
<g id="edge7" class="edge">
<title>object_code&#45;&gt;linker</title>
<path fill="none" stroke="#000000" d="M88.4387,-144.5708C96.9314,-135.8355 107.3771,-125.0914 116.7473,-115.4534"/>
<polygon fill="#000000" stroke="#000000" points="119.5123,-117.6304 123.9736,-108.0206 114.4933,-112.7508 119.5123,-117.6304"/>
</g>
<!-- executable -->
<g id="node5" class="node">
<title>executable</title>
<ellipse fill="none" stroke="#000000" cx="141.4937" cy="-18" rx="74.9875" ry="18"/>
<text text-anchor="middle" x="141.4937" y="-14.3" font-family="Sarasa UI SC" font-size="14.00" fill="#000000">可执行文件.out</text>
</g>
<!-- preprocesser&#45;&gt;preprocessed_code -->
<g id="edge2" class="edge">
<title>preprocesser&#45;&gt;preprocessed_code</title>
<path fill="none" stroke="#000000" d="M71.4937,-503.8314C71.4937,-496.131 71.4937,-486.9743 71.4937,-478.4166"/>
<polygon fill="#000000" stroke="#000000" points="74.9938,-478.4132 71.4937,-468.4133 67.9938,-478.4133 74.9938,-478.4132"/>
</g>
<!-- compiler&#45;&gt;assembly_code -->
<g id="edge4" class="edge">
<title>compiler&#45;&gt;assembly_code</title>
<path fill="none" stroke="#000000" d="M71.4937,-359.8314C71.4937,-352.131 71.4937,-342.9743 71.4937,-334.4166"/>
<polygon fill="#000000" stroke="#000000" points="74.9938,-334.4132 71.4937,-324.4133 67.9938,-334.4133 74.9938,-334.4132"/>
</g>
<!-- assembler&#45;&gt;object_code -->
<g id="edge6" class="edge">
<title>assembler&#45;&gt;object_code</title>
<path fill="none" stroke="#000000" d="M71.4937,-215.8314C71.4937,-208.131 71.4937,-198.9743 71.4937,-190.4166"/>
<polygon fill="#000000" stroke="#000000" points="74.9938,-190.4132 71.4937,-180.4133 67.9938,-190.4133 74.9938,-190.4132"/>
</g>
<!-- linker&#45;&gt;executable -->
<g id="edge8" class="edge">
<title>linker&#45;&gt;executable</title>
<path fill="none" stroke="#000000" d="M141.4937,-71.8314C141.4937,-64.131 141.4937,-54.9743 141.4937,-46.4166"/>
<polygon fill="#000000" stroke="#000000" points="144.9938,-46.4132 141.4937,-36.4133 137.9938,-46.4133 144.9938,-46.4132"/>
</g>
<!-- 其他目标代码 -->
<g id="node10" class="node">
<title>其他目标代码</title>
<ellipse fill="none" stroke="#000000" cx="211.4937" cy="-162" rx="66.0889" ry="18"/>
<text text-anchor="middle" x="211.4937" y="-158.3" font-family="Sarasa UI SC" font-size="14.00" fill="#000000">其他目标代码</text>
</g>
<!-- 其他目标代码&#45;&gt;linker -->
<g id="edge9" class="edge">
<title>其他目标代码&#45;&gt;linker</title>
<path fill="none" stroke="#000000" d="M194.5486,-144.5708C186.056,-135.8355 175.6103,-125.0914 166.24,-115.4534"/>
<polygon fill="#000000" stroke="#000000" points="168.494,-112.7508 159.0137,-108.0206 163.475,-117.6304 168.494,-112.7508"/>
</g>
</g>
</svg>
